HIERARCHY
ROOT Pelvis
{
	OFFSET 0.000000 0.000000 0.000000
	CHANNELS 6 Xposition Yposition Zposition Xrotation Yrotation Zrotation
	JOINT LeftUpLeg_virtual
	{
		OFFSET 0.000000 0.000000 0.000000
		CHANNELS 3 Xrotation Yrotation Zrotation
		JOINT LeftUpLeg
		{
			OFFSET 18.735201 -5.666702 -4.541200
			CHANNELS 3 Xrotation Yrotation Zrotation
			JOINT LeftLeg
			{
				OFFSET -0.021200 -31.938179 0.493100
				CHANNELS 3 Xrotation Yrotation Zrotation
				JOINT LeftFoot
				{
					OFFSET 0.021200 -31.938179 -4.336299
					CHANNELS 3 Xrotation Yrotation Zrotation
					JOINT LeftToeBase
					{
						OFFSET 0.943001 -26.722000 15.023500
						CHANNELS 3 Xrotation Yrotation Zrotation
						End Site
						{
							OFFSET 0 0 0
						}
					}
				}
			}
		}
	}
	JOINT RightUpLeg_virtual
	{
		OFFSET 0.000000 0.000000 0.000000
		CHANNELS 3 Xrotation Yrotation Zrotation
		JOINT RightUpLeg
		{
			OFFSET -18.735201 -5.666702 -4.541200
			CHANNELS 3 Xrotation Yrotation Zrotation
			JOINT RightLeg
			{
				OFFSET 0.018946 -31.938133 0.493100
				CHANNELS 3 Xrotation Yrotation Zrotation
				JOINT RightFoot
				{
					OFFSET -0.018946 -31.938126 -4.336299
					CHANNELS 3 Xrotation Yrotation Zrotation
					JOINT RightToeBase
					{
						OFFSET -0.943001 -26.722004 15.023500
						CHANNELS 3 Xrotation Yrotation Zrotation
						End Site
						{
							OFFSET 0 0 0
						}
					}
				}
			}
		}
	}
	JOINT Hips_virtual
	{
		OFFSET 0.000000 0.000000 0.000000
		CHANNELS 3 Xrotation Yrotation Zrotation
		JOINT Hips
		{
			OFFSET -0.000000 -0.000000 -0.000000
			CHANNELS 3 Xrotation Yrotation Zrotation
			JOINT Spine
			{
				OFFSET 0.000000 10.199997 -0.299500
				CHANNELS 3 Xrotation Yrotation Zrotation
				JOINT Spine1
				{
					OFFSET 0.000000 11.900002 -1.516600
					CHANNELS 3 Xrotation Yrotation Zrotation
					JOINT Spine2
					{
						OFFSET 0.000000 13.600006 -2.842500
						CHANNELS 3 Xrotation Yrotation Zrotation
						JOINT Neck_virtual
						{
							OFFSET 0.000000 0.000000 0.000000
							CHANNELS 3 Xrotation Yrotation Zrotation
							JOINT Neck
							{
								OFFSET 0.000000 9.624100 -2.890100
								CHANNELS 3 Xrotation Yrotation Zrotation
								JOINT Head
								{
									OFFSET 0.000000 14.068802 -1.351900
									CHANNELS 3 Xrotation Yrotation Zrotation
									End Site
									{
										OFFSET 0 0 0
									}
								}
							}
						}
						JOINT LeftShoulder_virtual
						{
							OFFSET 0.000000 0.000000 0.000000
							CHANNELS 3 Xrotation Yrotation Zrotation
							JOINT LeftShoulder
							{
								OFFSET 15.263000 10.923401 -0.547700
								CHANNELS 3 Xrotation Yrotation Zrotation
								JOINT LeftArm
								{
									OFFSET 25.438599 -2.830597 -13.032500
									CHANNELS 3 Xrotation Yrotation Zrotation
									JOINT LeftForeArm
									{
										OFFSET 29.960503 0.000000 0.000000
										CHANNELS 3 Xrotation Yrotation Zrotation
										JOINT LeftHand
										{
											OFFSET 27.849251 0.000000 0.000000
											CHANNELS 3 Xrotation Yrotation Zrotation
											End Site
											{
												OFFSET 0 0 0
											}
										}
									}
								}
							}
						}
						JOINT RightShoulder_virtual
						{
							OFFSET 0.000000 0.000000 0.000000
							CHANNELS 3 Xrotation Yrotation Zrotation
							JOINT RightShoulder
							{
								OFFSET -15.263000 10.923401 -0.547700
								CHANNELS 3 Xrotation Yrotation Zrotation
								JOINT RightArm
								{
									OFFSET -25.438599 -2.830597 -13.032500
									CHANNELS 3 Xrotation Yrotation Zrotation
									JOINT RightForeArm
									{
										OFFSET -29.960503 0.000000 0.000000
										CHANNELS 3 Xrotation Yrotation Zrotation
										JOINT RightHand
										{
											OFFSET -27.849251 0.000000 0.000000
											CHANNELS 3 Xrotation Yrotation Zrotation
											End Site
											{
												OFFSET 0 0 0
											}
										}
									}
								}
							}
						}
					}
				}
			}
		}
	}
}
MOTION
Frames: 4
Frame Time: 0.03333333
-0.035493 86.149033 -0.682301 0.000000 0.000000 0.000000 119.536056 -87.125948 119.078447 -31.506314 30.946313 42.839356 35.063264 -11.573621 1.058883 -9.711261 8.257453 -23.106673 0.000000 0.000000 0.000000 119.536056 -87.125948 119.078447 -38.051834 -8.665541 -25.598048 22.011507 11.153710 -3.940124 5.914234 13.611749 23.364335 0.000000 0.000000 0.000000 119.536056 -87.125948 119.078447 0.000000 0.000000 0.000000 5.385781 -2.178367 -8.023787 2.771438 -0.553950 -1.077813 0.000000 0.000000 0.000000 2.777688 -0.510268 -1.087487 -2.410724 1.279837 0.846269 0.000000 0.000000 0.000000 2.777688 -0.510268 -1.087487 5.516883 -2.188420 12.208352 -41.899358 5.599303 2.227375 0.045079 -12.980545 -0.290003 0.000000 0.000000 0.000000 2.777688 -0.510268 -1.087487 -2.478559 1.878755 -16.638413 -51.925895 54.163772 47.616623 -178.637451 49.479663 -179.753176 0.000000 0.000000 0.000000 
-0.034115 86.155876 -0.681206 0.000000 0.000000 0.000000 119.540373 -87.138365 119.090810 -31.476158 30.959079 42.805806 35.032833 -11.565529 1.077948 -9.694616 8.257476 -23.115138 0.000000 0.000000 0.000000 119.540373 -87.138365 119.090810 -38.027505 -8.660795 -25.615643 21.988356 11.148260 -3.918833 5.924854 13.611246 23.357811 0.000000 0.000000 0.000000 119.540373 -87.138365 119.090810 0.000000 0.000000 0.000000 5.385739 -2.178501 -8.023264 2.771262 -0.563897 -1.076319 0.000000 0.000000 0.000000 2.777361 -0.526628 -1.085017 -2.405943 1.274098 0.847145 0.000000 0.000000 0.000000 2.777361 -0.526628 -1.085017 5.523682 -2.173155 12.243788 -41.919275 5.652337 2.202113 0.064107 -13.136955 -0.284904 0.000000 0.000000 0.000000 2.777361 -0.526628 -1.085017 -2.480389 1.866594 -16.643231 -51.815806 54.140290 47.365231 179.227415 49.509849 -178.185442 0.000000 0.000000 0.000000 
-0.032491 86.163795 -0.677071 0.000000 0.000000 0.000000 119.348950 -87.158343 118.909359 -31.453369 30.971964 42.769975 35.004354 -11.569205 1.097805 -9.677109 8.255746 -23.115737 0.000000 0.000000 0.000000 119.348950 -87.158343 118.909359 -37.991100 -8.649908 -25.639372 21.962774 11.127392 -3.898540 5.931230 13.609658 23.358178 0.000000 0.000000 0.000000 119.348950 -87.158343 118.909359 0.000000 0.000000 0.000000 5.412321 -2.176614 -8.002930 2.804000 -0.568237 -1.061619 0.000000 0.000000 0.000000 2.813112 -0.548238 -1.065947 -2.400997 1.258755 0.850132 0.000000 0.000000 0.000000 2.813112 -0.548238 -1.065947 5.552301 -2.127881 12.340268 -42.041112 5.758730 2.080976 0.076807 -13.147930 -0.281641 0.000000 0.000000 0.000000 2.813112 -0.548238 -1.065947 -2.484599 1.832601 -16.660976 -52.022969 54.080041 47.449013 179.274434 49.456966 -178.221574 0.000000 0.000000 0.000000 
-0.030733 86.171684 -0.669376 0.000000 0.000000 0.000000 118.925765 -87.186313 118.497881 -31.436475 30.977298 42.728373 34.984437 -11.579753 1.118484 -9.661979 8.252715 -23.109064 0.000000 0.000000 0.000000 118.925765 -87.186313 118.497881 -37.941875 -8.627383 -25.669121 21.940333 11.084220 -3.880932 5.929382 13.606692 23.368025 0.000000 0.000000 0.000000 118.925765 -87.186313 118.497881 0.000000 0.000000 0.000000 5.424571 -2.191601 -7.983444 2.800295 -0.616392 -1.060632 0.000000 0.000000 0.000000 2.814545 -0.624593 -1.055655 -2.395965 1.236275 0.854974 0.000000 0.000000 0.000000 2.814545 -0.624593 -1.055655 5.595406 -2.057283 12.486840 -42.079358 5.946067 1.971274 0.088177 -13.162949 -0.278395 0.000000 0.000000 0.000000 2.814545 -0.624593 -1.055655 -2.491063 1.778948 -16.689700 -52.210530 54.072067 47.554854 179.342490 49.475944 -178.272391 0.000000 0.000000 0.000000 
